<mxfile host="app.diagrams.net" modified="2023-09-23T08:57:22.040Z" agent="Mozilla/5.0 (Windows NT 10.0; Win64; x64) AppleWebKit/537.36 (KHTML, like Gecko) Chrome/116.0.0.0 Safari/537.36" etag="f4l6lhgFVeboe-Pj-QMk" version="21.8.1" type="github">
  <diagram name="第 1 页" id="Q7SS0ckkUcSd-P_3bl_g">
    <mxGraphModel dx="995" dy="607" grid="0" gridSize="10" guides="1" tooltips="1" connect="1" arrows="1" fold="1" page="1" pageScale="1" pageWidth="827" pageHeight="1169" background="none" math="0" shadow="0">
      <root>
        <mxCell id="0" />
        <mxCell id="1" parent="0" />
        <mxCell id="Rtw2Mw8w-L1hEYjC5oc2-2" value="&lt;h1&gt;Client&lt;/h1&gt;" style="whiteSpace=wrap;html=1;aspect=fixed;verticalAlign=top;" vertex="1" parent="1">
          <mxGeometry x="295" y="90" width="210" height="210" as="geometry" />
        </mxCell>
        <mxCell id="Rtw2Mw8w-L1hEYjC5oc2-4" value="&lt;h4&gt;Web&lt;/h4&gt;" style="whiteSpace=wrap;html=1;aspect=fixed;" vertex="1" parent="1">
          <mxGeometry x="310" y="210" width="80" height="80" as="geometry" />
        </mxCell>
        <mxCell id="Rtw2Mw8w-L1hEYjC5oc2-5" value="&lt;h4&gt;Electron&lt;/h4&gt;" style="whiteSpace=wrap;html=1;aspect=fixed;" vertex="1" parent="1">
          <mxGeometry x="410" y="210" width="80" height="80" as="geometry" />
        </mxCell>
        <mxCell id="Rtw2Mw8w-L1hEYjC5oc2-6" value="&lt;h1 style=&quot;font-size: 24px;&quot;&gt;Server&lt;/h1&gt;" style="rounded=0;whiteSpace=wrap;html=1;align=center;verticalAlign=top;" vertex="1" parent="1">
          <mxGeometry x="80" y="360" width="656" height="305" as="geometry" />
        </mxCell>
        <mxCell id="Rtw2Mw8w-L1hEYjC5oc2-21" value="&lt;font style=&quot;font-size: 18px;&quot;&gt;Docker&lt;/font&gt;" style="rounded=0;whiteSpace=wrap;html=1;strokeWidth=2;verticalAlign=top;" vertex="1" parent="1">
          <mxGeometry x="89.5" y="423" width="628.5" height="230" as="geometry" />
        </mxCell>
        <mxCell id="Rtw2Mw8w-L1hEYjC5oc2-10" value="&lt;font style=&quot;font-size: 18px;&quot;&gt;Nginx&lt;/font&gt;" style="rounded=0;whiteSpace=wrap;html=1;" vertex="1" parent="1">
          <mxGeometry x="100" y="466" width="180" height="60" as="geometry" />
        </mxCell>
        <mxCell id="Rtw2Mw8w-L1hEYjC5oc2-11" value="&lt;font style=&quot;font-size: 18px;&quot;&gt;RESTful API Server&lt;/font&gt;" style="rounded=0;whiteSpace=wrap;html=1;" vertex="1" parent="1">
          <mxGeometry x="522" y="466" width="180" height="60" as="geometry" />
        </mxCell>
        <mxCell id="Rtw2Mw8w-L1hEYjC5oc2-12" value="&lt;font style=&quot;font-size: 18px;&quot;&gt;AI Server&lt;/font&gt;" style="rounded=0;whiteSpace=wrap;html=1;" vertex="1" parent="1">
          <mxGeometry x="310" y="466" width="180" height="60" as="geometry" />
        </mxCell>
        <mxCell id="Rtw2Mw8w-L1hEYjC5oc2-15" value="" style="endArrow=classic;html=1;rounded=0;entryX=0.25;entryY=0;entryDx=0;entryDy=0;exitX=0.25;exitY=1;exitDx=0;exitDy=0;strokeColor=#FFFFFF;" edge="1" parent="1" source="Rtw2Mw8w-L1hEYjC5oc2-2" target="Rtw2Mw8w-L1hEYjC5oc2-6">
          <mxGeometry relative="1" as="geometry">
            <mxPoint x="150" y="310" as="sourcePoint" />
            <mxPoint x="250" y="310" as="targetPoint" />
          </mxGeometry>
        </mxCell>
        <mxCell id="Rtw2Mw8w-L1hEYjC5oc2-17" value="Response" style="edgeLabel;html=1;align=center;verticalAlign=middle;resizable=0;points=[];" vertex="1" connectable="0" parent="Rtw2Mw8w-L1hEYjC5oc2-15">
          <mxGeometry x="-0.0276" y="1" relative="1" as="geometry">
            <mxPoint x="4" as="offset" />
          </mxGeometry>
        </mxCell>
        <mxCell id="Rtw2Mw8w-L1hEYjC5oc2-18" value="" style="endArrow=classic;html=1;rounded=0;entryX=0.75;entryY=1;entryDx=0;entryDy=0;exitX=0.75;exitY=0;exitDx=0;exitDy=0;strokeColor=#FFFFFF;" edge="1" parent="1" source="Rtw2Mw8w-L1hEYjC5oc2-6" target="Rtw2Mw8w-L1hEYjC5oc2-2">
          <mxGeometry relative="1" as="geometry">
            <mxPoint x="510" y="330" as="sourcePoint" />
            <mxPoint x="330" y="370" as="targetPoint" />
          </mxGeometry>
        </mxCell>
        <mxCell id="Rtw2Mw8w-L1hEYjC5oc2-19" value="Request" style="edgeLabel;html=1;align=center;verticalAlign=middle;resizable=0;points=[];" vertex="1" connectable="0" parent="Rtw2Mw8w-L1hEYjC5oc2-18">
          <mxGeometry x="-0.0276" y="1" relative="1" as="geometry">
            <mxPoint x="4" as="offset" />
          </mxGeometry>
        </mxCell>
        <mxCell id="Rtw2Mw8w-L1hEYjC5oc2-22" value="&lt;span style=&quot;font-size: 20px;&quot;&gt;PostgreSQL&lt;/span&gt;" style="rounded=0;whiteSpace=wrap;html=1;" vertex="1" parent="1">
          <mxGeometry x="435" y="567" width="147" height="74" as="geometry" />
        </mxCell>
        <mxCell id="Rtw2Mw8w-L1hEYjC5oc2-24" value="" style="endArrow=classic;startArrow=classic;html=1;rounded=0;exitX=0;exitY=0.5;exitDx=0;exitDy=0;entryX=0.5;entryY=1;entryDx=0;entryDy=0;" edge="1" parent="1" source="Rtw2Mw8w-L1hEYjC5oc2-22" target="Rtw2Mw8w-L1hEYjC5oc2-12">
          <mxGeometry width="50" height="50" relative="1" as="geometry">
            <mxPoint x="349" y="579" as="sourcePoint" />
            <mxPoint x="399" y="529" as="targetPoint" />
            <Array as="points">
              <mxPoint x="402" y="604" />
            </Array>
          </mxGeometry>
        </mxCell>
        <mxCell id="Rtw2Mw8w-L1hEYjC5oc2-25" value="" style="endArrow=classic;startArrow=classic;html=1;rounded=0;exitX=1;exitY=0.5;exitDx=0;exitDy=0;entryX=0.5;entryY=1;entryDx=0;entryDy=0;" edge="1" parent="1">
          <mxGeometry width="50" height="50" relative="1" as="geometry">
            <mxPoint x="582.0000000000002" y="604" as="sourcePoint" />
            <mxPoint x="612" y="526" as="targetPoint" />
            <Array as="points">
              <mxPoint x="623" y="604" />
            </Array>
          </mxGeometry>
        </mxCell>
      </root>
    </mxGraphModel>
  </diagram>
</mxfile>
